<mxfile host="Electron" modified="2023-04-16T11:38:58.792Z" agent="Mozilla/5.0 (Windows NT 10.0; Win64; x64) AppleWebKit/537.36 (KHTML, like Gecko) draw.io/21.1.2 Chrome/106.0.5249.199 Electron/21.4.3 Safari/537.36" etag="M_hMf0h6vy30zONQg6Z7" version="21.1.2" type="device">
  <diagram id="n0xoaGKSBa-2ghkYQ6iz" name="Page-1">
    <mxGraphModel dx="1036" dy="614" grid="1" gridSize="10" guides="1" tooltips="1" connect="1" arrows="1" fold="1" page="1" pageScale="1" pageWidth="1700" pageHeight="1100" math="0" shadow="0">
      <root>
        <mxCell id="0" />
        <mxCell id="1" parent="0" />
        <mxCell id="X6AwQF3P1JKP2_nDlPc4-5" value="" style="edgeStyle=orthogonalEdgeStyle;rounded=0;orthogonalLoop=1;jettySize=auto;html=1;" parent="1" source="X6AwQF3P1JKP2_nDlPc4-3" target="X6AwQF3P1JKP2_nDlPc4-4" edge="1">
          <mxGeometry relative="1" as="geometry" />
        </mxCell>
        <mxCell id="X6AwQF3P1JKP2_nDlPc4-3" value="START" style="ellipse;whiteSpace=wrap;html=1;fillColor=#fff2cc;strokeColor=#d6b656;" parent="1" vertex="1">
          <mxGeometry x="890" y="70" width="120" height="80" as="geometry" />
        </mxCell>
        <mxCell id="X6AwQF3P1JKP2_nDlPc4-7" value="" style="edgeStyle=orthogonalEdgeStyle;rounded=0;orthogonalLoop=1;jettySize=auto;html=1;" parent="1" source="X6AwQF3P1JKP2_nDlPc4-4" target="X6AwQF3P1JKP2_nDlPc4-6" edge="1">
          <mxGeometry relative="1" as="geometry" />
        </mxCell>
        <mxCell id="X6AwQF3P1JKP2_nDlPc4-4" value="Retrieve footage from live camera" style="shape=parallelogram;perimeter=parallelogramPerimeter;whiteSpace=wrap;html=1;fixedSize=1;fillColor=#ffe6cc;strokeColor=#d79b00;" parent="1" vertex="1">
          <mxGeometry x="860" y="170" width="180" height="60" as="geometry" />
        </mxCell>
        <mxCell id="X6AwQF3P1JKP2_nDlPc4-9" value="" style="edgeStyle=orthogonalEdgeStyle;rounded=0;orthogonalLoop=1;jettySize=auto;html=1;entryX=0.5;entryY=0;entryDx=0;entryDy=0;" parent="1" source="X6AwQF3P1JKP2_nDlPc4-6" target="X6AwQF3P1JKP2_nDlPc4-10" edge="1">
          <mxGeometry relative="1" as="geometry">
            <mxPoint x="950" y="400" as="targetPoint" />
          </mxGeometry>
        </mxCell>
        <mxCell id="X6AwQF3P1JKP2_nDlPc4-6" value="Implement the car crash accident detection model on the video footage" style="whiteSpace=wrap;html=1;fillColor=#dae8fc;strokeColor=#6c8ebf;" parent="1" vertex="1">
          <mxGeometry x="860" y="250" width="180" height="60" as="geometry" />
        </mxCell>
        <mxCell id="X6AwQF3P1JKP2_nDlPc4-12" value="" style="edgeStyle=orthogonalEdgeStyle;rounded=0;orthogonalLoop=1;jettySize=auto;html=1;" parent="1" source="X6AwQF3P1JKP2_nDlPc4-10" target="X6AwQF3P1JKP2_nDlPc4-11" edge="1">
          <mxGeometry relative="1" as="geometry" />
        </mxCell>
        <mxCell id="X6AwQF3P1JKP2_nDlPc4-10" value="Switch on the green LED to indicate active monitoring state" style="shape=parallelogram;perimeter=parallelogramPerimeter;whiteSpace=wrap;html=1;fixedSize=1;fillColor=#ffe6cc;strokeColor=#d79b00;" parent="1" vertex="1">
          <mxGeometry x="860" y="330" width="180" height="60" as="geometry" />
        </mxCell>
        <mxCell id="X6AwQF3P1JKP2_nDlPc4-14" value="" style="edgeStyle=orthogonalEdgeStyle;rounded=0;orthogonalLoop=1;jettySize=auto;html=1;entryX=0;entryY=0.5;entryDx=0;entryDy=0;" parent="1" source="X6AwQF3P1JKP2_nDlPc4-11" target="X6AwQF3P1JKP2_nDlPc4-13" edge="1">
          <mxGeometry relative="1" as="geometry">
            <mxPoint x="1040" y="450.0588235294117" as="targetPoint" />
          </mxGeometry>
        </mxCell>
        <mxCell id="X6AwQF3P1JKP2_nDlPc4-11" value="Has an accident occured?" style="rhombus;whiteSpace=wrap;html=1;fillColor=#fff2cc;strokeColor=#d6b656;" parent="1" vertex="1">
          <mxGeometry x="880" y="410" width="140" height="80" as="geometry" />
        </mxCell>
        <mxCell id="X6AwQF3P1JKP2_nDlPc4-16" value="" style="edgeStyle=orthogonalEdgeStyle;rounded=0;orthogonalLoop=1;jettySize=auto;html=1;" parent="1" source="X6AwQF3P1JKP2_nDlPc4-13" target="X6AwQF3P1JKP2_nDlPc4-15" edge="1">
          <mxGeometry relative="1" as="geometry" />
        </mxCell>
        <mxCell id="X6AwQF3P1JKP2_nDlPc4-13" value="Obtain basic information of the accident such as camera number, time, and location" style="whiteSpace=wrap;html=1;fillColor=#dae8fc;strokeColor=#6c8ebf;" parent="1" vertex="1">
          <mxGeometry x="1050" y="420" width="180" height="60" as="geometry" />
        </mxCell>
        <mxCell id="X6AwQF3P1JKP2_nDlPc4-18" value="" style="edgeStyle=orthogonalEdgeStyle;rounded=0;orthogonalLoop=1;jettySize=auto;html=1;" parent="1" source="X6AwQF3P1JKP2_nDlPc4-15" target="X6AwQF3P1JKP2_nDlPc4-17" edge="1">
          <mxGeometry relative="1" as="geometry" />
        </mxCell>
        <mxCell id="X6AwQF3P1JKP2_nDlPc4-15" value="Switch on red LED to turn on Buzzer/Alarm" style="shape=parallelogram;perimeter=parallelogramPerimeter;whiteSpace=wrap;html=1;fixedSize=1;fillColor=#ffe6cc;strokeColor=#d79b00;" parent="1" vertex="1">
          <mxGeometry x="1240" y="420" width="180" height="60" as="geometry" />
        </mxCell>
        <mxCell id="X6AwQF3P1JKP2_nDlPc4-20" value="" style="edgeStyle=orthogonalEdgeStyle;rounded=0;orthogonalLoop=1;jettySize=auto;html=1;" parent="1" source="X6AwQF3P1JKP2_nDlPc4-17" target="X6AwQF3P1JKP2_nDlPc4-19" edge="1">
          <mxGeometry relative="1" as="geometry" />
        </mxCell>
        <mxCell id="X6AwQF3P1JKP2_nDlPc4-17" value="Display Accident Notification on the LCD" style="strokeWidth=1;html=1;shape=mxgraph.flowchart.display;whiteSpace=wrap;fillColor=#d5e8d4;strokeColor=#82b366;" parent="1" vertex="1">
          <mxGeometry x="1245" y="500" width="170" height="80" as="geometry" />
        </mxCell>
        <mxCell id="X6AwQF3P1JKP2_nDlPc4-22" value="" style="edgeStyle=orthogonalEdgeStyle;rounded=0;orthogonalLoop=1;jettySize=auto;html=1;" parent="1" source="X6AwQF3P1JKP2_nDlPc4-19" target="X6AwQF3P1JKP2_nDlPc4-21" edge="1">
          <mxGeometry relative="1" as="geometry" />
        </mxCell>
        <mxCell id="X6AwQF3P1JKP2_nDlPc4-19" value="Send SMS notification to emergency responders including the accident details followed by an alert call" style="whiteSpace=wrap;html=1;strokeWidth=1;fillColor=#dae8fc;strokeColor=#6c8ebf;" parent="1" vertex="1">
          <mxGeometry x="1440" y="505" width="180" height="70" as="geometry" />
        </mxCell>
        <mxCell id="X6AwQF3P1JKP2_nDlPc4-21" value="A" style="ellipse;whiteSpace=wrap;html=1;aspect=fixed;strokeWidth=1;fillColor=#e1d5e7;strokeColor=#9673a6;" parent="1" vertex="1">
          <mxGeometry x="1510" y="600" width="40" height="40" as="geometry" />
        </mxCell>
        <mxCell id="X6AwQF3P1JKP2_nDlPc4-24" value="" style="edgeStyle=orthogonalEdgeStyle;rounded=0;orthogonalLoop=1;jettySize=auto;html=1;" parent="1" source="X6AwQF3P1JKP2_nDlPc4-23" target="X6AwQF3P1JKP2_nDlPc4-6" edge="1">
          <mxGeometry relative="1" as="geometry" />
        </mxCell>
        <mxCell id="X6AwQF3P1JKP2_nDlPc4-23" value="A" style="ellipse;whiteSpace=wrap;html=1;aspect=fixed;strokeWidth=1;fillColor=#e1d5e7;strokeColor=#9673a6;" parent="1" vertex="1">
          <mxGeometry x="1060" y="260" width="40" height="40" as="geometry" />
        </mxCell>
        <mxCell id="X6AwQF3P1JKP2_nDlPc4-25" value="" style="endArrow=classic;html=1;entryX=0;entryY=0.5;entryDx=0;entryDy=0;exitX=0;exitY=0.5;exitDx=0;exitDy=0;rounded=0;" parent="1" source="X6AwQF3P1JKP2_nDlPc4-11" target="X6AwQF3P1JKP2_nDlPc4-10" edge="1">
          <mxGeometry width="50" height="50" relative="1" as="geometry">
            <mxPoint x="760" y="460" as="sourcePoint" />
            <mxPoint x="810" y="410" as="targetPoint" />
            <Array as="points">
              <mxPoint x="840" y="450" />
              <mxPoint x="840" y="360" />
            </Array>
          </mxGeometry>
        </mxCell>
        <mxCell id="X6AwQF3P1JKP2_nDlPc4-26" value="Yes" style="text;html=1;strokeColor=none;fillColor=none;align=center;verticalAlign=middle;whiteSpace=wrap;rounded=0;" parent="1" vertex="1">
          <mxGeometry x="1010" y="420" width="40" height="20" as="geometry" />
        </mxCell>
        <mxCell id="X6AwQF3P1JKP2_nDlPc4-27" value="No" style="text;html=1;strokeColor=none;fillColor=none;align=center;verticalAlign=middle;whiteSpace=wrap;rounded=0;" parent="1" vertex="1">
          <mxGeometry x="840" y="420" width="40" height="20" as="geometry" />
        </mxCell>
      </root>
    </mxGraphModel>
  </diagram>
</mxfile>
